<svg width="408" height="61" viewBox="0 0 408 61" fill="none" xmlns="http://www.w3.org/2000/svg">
<path d="M2.72 7.04C1.97333 7.04 1.33333 6.8 0.799999 6.32C0.266666 5.78667 0 5.14667 0 4.4C0 3.65333 0.266666 3.04 0.799999 2.56C1.33333 2.02667 1.97333 1.76 2.72 1.76H40.08C40.8267 1.76 41.44 2.02667 41.92 2.56C42.4 3.04 42.64 3.65333 42.64 4.4C42.64 5.14667 42.3733 5.78667 41.84 6.32C41.36 6.8 40.7733 7.04 40.08 7.04H2.72ZM2.72 17.68C1.97333 17.68 1.33333 17.44 0.799999 16.96C0.266666 16.4267 0 15.8133 0 15.12C0 14.3733 0.266666 13.7333 0.799999 13.2C1.33333 12.6667 1.97333 12.4 2.72 12.4H16C16.7467 12.4 17.3867 12.6667 17.92 13.2C18.4533 13.7333 18.72 14.3733 18.72 15.12V57.76C18.72 58.5067 18.4533 59.1467 17.92 59.68C17.3867 60.2133 16.7467 60.48 16 60.48C15.2533 60.48 14.6133 60.2133 14.08 59.68C13.5467 59.1467 13.28 58.5067 13.28 57.76V17.68H2.72ZM40.08 12.4C40.7733 12.4 41.36 12.6667 41.84 13.2C42.3733 13.7333 42.64 14.3733 42.64 15.12C42.64 15.8133 42.4 16.4267 41.92 16.96C41.44 17.44 40.8267 17.68 40.08 17.68H29.36V57.76C29.36 58.5067 29.0933 59.1467 28.56 59.68C28.0267 60.2133 27.3867 60.48 26.64 60.48C25.8933 60.48 25.2533 60.2133 24.72 59.68C24.24 59.1467 24 58.5067 24 57.76V15.12C24 14.3733 24.24 13.7333 24.72 13.2C25.2533 12.6667 25.8933 12.4 26.64 12.4H40.08Z" fill="#FCA509"/>
<path d="M46.2862 58.32C46.0729 58.8533 45.7262 59.28 45.2462 59.6C44.7662 59.8667 44.2596 60 43.7262 60C43.5129 60 43.1929 59.9467 42.7663 59.84C42.2329 59.6267 41.8063 59.28 41.4863 58.8C41.2196 58.32 41.0863 57.7867 41.0863 57.2C41.0863 57.04 41.1396 56.7467 41.2462 56.32L63.0863 1.76C63.2996 1.22667 63.6196 0.800002 64.0462 0.480003C64.5263 0.160001 65.0329 0 65.5663 0C65.8863 0 66.2063 0.0800006 66.5263 0.240002C67.2196 0.453335 67.7262 0.960002 68.0462 1.76L89.8063 56.32C89.9663 56.64 90.0463 56.9867 90.0463 57.36C90.0463 57.8933 89.8863 58.4 89.5663 58.88C89.2996 59.3067 88.8996 59.6267 88.3663 59.84C87.9396 59.9467 87.6196 60 87.4063 60C86.8729 60 86.3663 59.84 85.8863 59.52C85.4062 59.2 85.0596 58.8 84.8463 58.32L65.5663 9.76L46.2862 58.32ZM61.6462 44.48C60.8996 44.48 60.2596 44.2133 59.7262 43.68C59.2463 43.1467 59.0062 42.5067 59.0062 41.76C59.0062 41.0133 59.2463 40.4 59.7262 39.92C60.2596 39.3867 60.8996 39.12 61.6462 39.12H65.4863L63.0863 33.2C62.9796 32.7733 62.9263 32.4533 62.9263 32.24C62.9263 31.7067 63.0596 31.2267 63.3262 30.8C63.6462 30.32 64.0462 29.9733 64.5263 29.76C64.8463 29.6 65.1929 29.52 65.5663 29.52C66.0996 29.52 66.5796 29.68 67.0062 30C67.4863 30.2667 67.8329 30.64 68.0462 31.12L71.9663 40.72C72.1263 41.04 72.2063 41.3867 72.2063 41.76C72.2063 42.5067 71.9129 43.1467 71.3263 43.68C70.7929 44.2133 70.1529 44.48 69.4062 44.48H61.6462ZM57.7262 58.32C57.5129 58.8533 57.1929 59.28 56.7663 59.6C56.3396 59.8667 55.8329 60 55.2462 60C55.0329 60 54.7129 59.9467 54.2862 59.84C53.7529 59.6267 53.3262 59.3067 53.0062 58.88C52.7396 58.4 52.6062 57.8933 52.6062 57.36C52.6062 56.9867 52.6863 56.64 52.8463 56.32L54.7663 51.44C55.0329 50.96 55.3796 50.56 55.8063 50.24C56.2863 49.92 56.7663 49.76 57.2463 49.76H73.8063C74.3929 49.76 74.9262 49.9467 75.4062 50.32C75.8863 50.6933 76.2063 51.1467 76.3662 51.68L78.2863 56.32C78.3929 56.7467 78.4463 57.0667 78.4463 57.28C78.4463 57.8133 78.2863 58.32 77.9663 58.8C77.6996 59.28 77.3263 59.6267 76.8463 59.84C76.4196 59.9467 76.0996 60 75.8863 60C75.2996 60 74.7663 59.8667 74.2863 59.6C73.8596 59.28 73.5396 58.8533 73.3263 58.32L72.0463 55.2H59.0863L57.7262 58.32Z" fill="#FCA509"/>
<path d="M103.441 57.84C103.441 58.6933 103.175 59.3333 102.641 59.76C102.108 60.24 101.495 60.48 100.801 60.48C100.055 60.48 99.4146 60.24 98.8812 59.76C98.3479 59.3333 98.0813 58.6933 98.0813 57.84V4.32C98.0813 3.62667 98.3479 3.01333 98.8812 2.48C99.4146 1.94667 100.055 1.68 100.801 1.68H121.841C125.415 1.68 128.615 2.56 131.441 4.32C134.268 6.08 136.455 8.42667 138.001 11.36C139.548 14.24 140.321 17.3067 140.321 20.56C140.321 22.9067 139.868 25.2 138.961 27.44C138.108 29.68 136.775 31.7333 134.961 33.6C132.508 36.0533 129.708 37.68 126.561 38.48L138.961 56.24C139.281 56.72 139.441 57.2267 139.441 57.76C139.441 58.5067 139.148 59.1467 138.561 59.68C138.028 60.2667 137.388 60.56 136.641 60.56C135.895 60.56 135.228 60.16 134.641 59.36L119.841 38.16C119.415 37.68 119.201 37.0933 119.201 36.4C119.201 35.6533 119.468 35.04 120.001 34.56C120.535 34.0267 121.148 33.76 121.841 33.76C124.401 33.76 126.668 33.12 128.641 31.84C130.668 30.56 132.215 28.88 133.281 26.8C134.401 24.72 134.961 22.5333 134.961 20.24C134.961 16.6133 133.681 13.4933 131.121 10.88C129.895 9.65334 128.481 8.72 126.881 8.08C125.281 7.38667 123.601 7.04 121.841 7.04H103.441V57.84ZM120.961 28.4C120.748 28.4 120.348 28.4267 119.761 28.48C119.228 28.48 118.748 28.4533 118.321 28.4C117.308 28.3467 116.508 28.0533 115.921 27.52C115.388 26.9333 115.121 26.2933 115.121 25.6C115.121 24.9067 115.388 24.32 115.921 23.84C116.508 23.36 117.308 23.12 118.321 23.12C118.588 23.12 119.255 23.1467 120.321 23.2C121.441 23.2 122.295 22.9867 122.881 22.56C123.468 22.08 123.761 21.36 123.761 20.4C123.761 19.6 123.495 18.96 122.961 18.48C122.428 17.9467 121.761 17.68 120.961 17.68H111.441C110.588 17.68 109.921 17.4133 109.441 16.88C109.015 16.3467 108.801 15.7067 108.801 14.96C108.801 14.2667 109.015 13.6533 109.441 13.12C109.921 12.5867 110.588 12.32 111.441 12.32H120.961C123.308 12.32 125.228 13.1467 126.721 14.8C128.268 16.4533 129.041 18.3467 129.041 20.48C129.041 22.72 128.241 24.6133 126.641 26.16C125.095 27.6533 123.201 28.4 120.961 28.4ZM125.921 56.24C126.241 56.6133 126.401 57.12 126.401 57.76C126.401 58.5067 126.108 59.1467 125.521 59.68C124.988 60.2667 124.348 60.56 123.601 60.56C122.801 60.56 122.108 60.16 121.521 59.36L114.161 48.72V57.84C114.161 58.6933 113.895 59.3333 113.361 59.76C112.828 60.24 112.215 60.48 111.521 60.48C110.775 60.48 110.135 60.24 109.601 59.76C109.068 59.3333 108.801 58.6933 108.801 57.84V40.4C108.801 39.5467 109.068 38.88 109.601 38.4C110.135 37.8667 110.748 37.6 111.441 37.6C112.348 37.6 113.095 37.9733 113.681 38.72L125.921 56.24Z" fill="#FCA509"/>
<path d="M148.083 58.32C147.87 58.8533 147.523 59.28 147.043 59.6C146.563 59.8667 146.056 60 145.523 60C145.31 60 144.99 59.9467 144.563 59.84C144.03 59.6267 143.603 59.28 143.283 58.8C143.016 58.32 142.883 57.7867 142.883 57.2C142.883 57.04 142.936 56.7467 143.043 56.32L164.883 1.76C165.096 1.22667 165.416 0.800002 165.843 0.480003C166.323 0.160001 166.83 0 167.363 0C167.683 0 168.003 0.0800006 168.323 0.240002C169.016 0.453335 169.523 0.960002 169.843 1.76L191.603 56.32C191.763 56.64 191.843 56.9867 191.843 57.36C191.843 57.8933 191.683 58.4 191.363 58.88C191.096 59.3067 190.696 59.6267 190.163 59.84C189.736 59.9467 189.416 60 189.203 60C188.67 60 188.163 59.84 187.683 59.52C187.203 59.2 186.856 58.8 186.643 58.32L167.363 9.76L148.083 58.32ZM163.443 44.48C162.696 44.48 162.056 44.2133 161.523 43.68C161.043 43.1467 160.803 42.5067 160.803 41.76C160.803 41.0133 161.043 40.4 161.523 39.92C162.056 39.3867 162.696 39.12 163.443 39.12H167.283L164.883 33.2C164.776 32.7733 164.723 32.4533 164.723 32.24C164.723 31.7067 164.856 31.2267 165.123 30.8C165.443 30.32 165.843 29.9733 166.323 29.76C166.643 29.6 166.99 29.52 167.363 29.52C167.896 29.52 168.376 29.68 168.803 30C169.283 30.2667 169.63 30.64 169.843 31.12L173.763 40.72C173.923 41.04 174.003 41.3867 174.003 41.76C174.003 42.5067 173.71 43.1467 173.123 43.68C172.59 44.2133 171.95 44.48 171.203 44.48H163.443ZM159.523 58.32C159.31 58.8533 158.99 59.28 158.563 59.6C158.136 59.8667 157.63 60 157.043 60C156.83 60 156.51 59.9467 156.083 59.84C155.55 59.6267 155.123 59.3067 154.803 58.88C154.536 58.4 154.403 57.8933 154.403 57.36C154.403 56.9867 154.483 56.64 154.643 56.32L156.563 51.44C156.83 50.96 157.176 50.56 157.603 50.24C158.083 49.92 158.563 49.76 159.043 49.76H175.603C176.19 49.76 176.723 49.9467 177.203 50.32C177.683 50.6933 178.003 51.1467 178.163 51.68L180.083 56.32C180.19 56.7467 180.243 57.0667 180.243 57.28C180.243 57.8133 180.083 58.32 179.763 58.8C179.496 59.28 179.123 59.6267 178.643 59.84C178.216 59.9467 177.896 60 177.683 60C177.096 60 176.563 59.8667 176.083 59.6C175.656 59.28 175.336 58.8533 175.123 58.32L173.843 55.2H160.883L159.523 58.32Z" fill="#FCA509"/>
<path d="M188.935 2.48H202.135L209.735 21.52L213.895 33.36L217.975 21.92L225.655 2.48H238.855L215.175 60.88H212.615L188.935 2.48Z" fill="#388E3C"/>
<path d="M245.792 59.68V2.48H274.432V13.92H257.232V25.36H272.272V36.8H257.232V48.24H275.392V59.68H245.792Z" fill="#388E3C"/>
<path d="M303.065 37.84H297.545V59.68H286.105V2.48H308.665C312.238 2.48 315.305 3.30667 317.865 4.96C320.425 6.61333 322.345 8.77333 323.625 11.44C324.905 14.0533 325.545 16.8533 325.545 19.84C325.545 23.5733 324.558 26.96 322.585 30C320.611 33.04 317.838 35.0667 314.265 36.08L327.545 59.68H314.585L303.065 37.84ZM307.625 26.72C309.491 26.72 310.931 26.1067 311.945 24.88C312.958 23.6 313.465 22.08 313.465 20.32C313.465 18.56 312.958 17.0667 311.945 15.84C310.931 14.56 309.491 13.92 307.625 13.92H297.545V26.72H307.625Z" fill="#388E3C"/>
<path d="M333.967 44C336.421 45.76 338.927 46.9867 341.487 47.68C344.101 48.32 346.501 48.64 348.687 48.64L350.287 48.56C351.941 48.4533 353.327 47.8933 354.447 46.88C355.621 45.8667 356.207 44.6667 356.207 43.28C356.207 41.6267 355.701 40.3467 354.687 39.44C353.674 38.48 352.207 37.6533 350.287 36.96C345.007 35.04 340.847 32.7467 337.807 30.08C334.821 27.4133 333.327 23.8933 333.327 19.52C333.327 16.3733 333.994 13.4933 335.327 10.88C336.714 8.26667 338.634 6.18667 341.087 4.64C343.541 3.09333 346.341 2.24 349.487 2.08L351.407 2C354.927 2 359.034 2.82667 363.727 4.48L362.287 15.52C357.967 13.76 354.074 12.96 350.607 13.12C348.794 13.2267 347.381 13.84 346.367 14.96C345.407 16.0267 344.927 17.36 344.927 18.96C344.927 20.6133 345.487 21.92 346.607 22.88C347.727 23.7867 349.301 24.5867 351.327 25.28C356.394 27.1467 360.421 29.4933 363.407 32.32C366.394 35.0933 367.887 38.5867 367.887 42.8C367.887 46.16 367.114 49.1733 365.567 51.84C364.021 54.4533 361.807 56.5067 358.927 58C356.101 59.4933 352.794 60.24 349.007 60.24C346.767 60.24 344.207 59.92 341.327 59.28C338.447 58.64 335.514 57.5467 332.527 56L333.967 44Z" fill="#388E3C"/>
<path d="M377.511 59.68V2.48H406.151V13.92H388.951V25.36H403.991V36.8H388.951V48.24H407.111V59.68H377.511Z" fill="#388E3C"/>
</svg>
