<svg width="219" height="219" viewBox="0 0 219 219" fill="none" xmlns="http://www.w3.org/2000/svg">
<g clip-path="url(#clip0)">
<path d="M0.468506 160.484H219V218.531H0.468506V160.484Z" fill="#42ADE2"/>
<path d="M0.468506 178.923C0.468506 178.923 12.7609 179.264 26.0777 184.386C38.0286 189.166 58.5159 196.678 68.7596 196.678C71.1498 196.678 76.9545 194.971 76.9545 194.971C76.9545 194.971 108.027 203.849 119.978 203.166C123.051 203.166 129.197 200.093 129.197 200.093C129.197 200.093 132.953 200.434 133.978 200.093C137.734 199.41 141.831 196.337 145.246 195.654C148.319 194.971 155.489 195.312 158.221 194.63C161.294 193.947 167.099 189.849 167.099 189.849C167.099 189.849 175.294 189.849 178.025 189.508C180.757 189.166 187.586 187.8 187.586 187.8C187.586 187.8 196.464 188.825 199.537 188.825C204.317 188.825 218.659 186.776 218.659 186.776V160.484H0.468506V178.923Z" fill="#2B95BF"/>
<path d="M0.468506 96.631C0.468506 96.631 12.7609 95.6066 26.0777 78.1924C38.0286 62.4855 58.5159 35.8519 68.7596 35.5105C71.1498 35.5105 76.9545 41.9981 76.9545 41.9981C76.9545 41.9981 108.027 11.6086 119.636 13.6573C122.71 14.3403 128.856 24.5839 128.856 24.5839C128.856 24.5839 132.612 23.901 133.636 24.5839C137.392 26.6327 141.49 37.2178 144.904 39.608C147.977 41.6567 155.148 40.6323 157.879 43.364C160.953 46.0956 166.757 59.4124 166.757 59.4124C166.757 59.4124 174.952 59.7538 177.684 60.7782C180.416 61.8026 187.245 67.2658 187.245 67.2658C187.245 67.2658 196.122 63.8513 199.196 64.1927C203.976 64.5342 218.317 71.3633 218.317 71.3633V160.483H0.468506V96.631Z" fill="#77994F"/>
<path d="M192.708 110.631L167.44 59.0712C174.61 77.1683 170.854 106.533 192.708 110.631Z" fill="#8BCE4A"/>
<path d="M187.927 66.9271C187.927 66.9271 191 87.073 207.049 92.5363L187.927 66.9271Z" fill="#8BCE4A"/>
<path d="M65.0036 160.483L55.1014 124.289L67.7352 129.411L57.833 103.46H73.54L65.345 76.4854L75.5887 72.3879L82.4178 59.4126L76.6131 41.9984L97.1004 81.9487L127.831 122.24L152.758 146.142L178.367 152.63L192.708 160.483H65.0036Z" fill="#8BCE4A"/>
<path d="M129.198 24.5854L132.271 51.219L140.807 68.2917H135.003L154.124 94.9253L141.49 89.462L151.392 118.144L170.514 132.485L163.343 137.949L184.855 149.217L198.172 160.485H219.001V150.924L196.123 139.314L190.66 133.851L186.562 137.949L167.441 104.827L148.319 60.7797L140.466 48.8288L129.198 24.5854Z" fill="#8BCE4A"/>
<path d="M144.563 160.485H0.468506V137.949L144.563 160.485Z" fill="#DBF763"/>
<path d="M144.563 160.484H0.468506V171.069L144.563 160.484Z" fill="#1D8299"/>
<path d="M17.5413 166.973C23.3461 165.949 28.1264 170.046 33.9312 166.973C40.4188 163.9 44.8578 168.339 51.004 169.363C45.1992 170.388 40.4188 166.29 34.6141 169.363C28.1264 172.436 23.6875 168.339 17.5413 166.973Z" fill="#B4D7EE"/>
<path d="M180.074 180.288C185.879 179.264 190.66 183.361 196.464 180.288C202.952 177.215 207.391 181.654 213.537 182.678C207.732 183.702 202.952 179.605 197.147 182.678C190.66 185.751 186.221 181.654 180.074 180.288Z" fill="#B4D7EE"/>
<path d="M52.7122 180.289C58.1754 179.265 62.6144 181.655 68.0776 182.338C74.2238 183.021 79.0042 180.972 84.809 179.265C95.3941 175.509 103.248 182.679 113.15 184.728C107.686 185.752 103.248 183.362 97.7843 182.679C91.6381 181.996 86.8577 184.045 81.053 185.752C70.4678 189.508 62.6144 182.338 52.7122 180.289Z" fill="#B4D7EE"/>
<path d="M119.636 195.654C125.099 194.63 129.538 197.02 135.002 197.703C141.148 198.386 145.928 196.337 151.733 194.63C162.318 190.874 170.172 198.045 180.074 200.093C174.61 201.459 170.172 198.728 164.708 198.045C158.562 197.362 153.782 199.41 147.977 201.118C137.392 204.874 129.538 197.703 119.636 195.654" fill="#B4D7EE"/>
<path d="M132.271 166.63C140.466 165.606 147.636 171.411 155.831 167.313C165.05 163.216 171.538 169.021 180.074 170.387C171.879 171.411 164.709 165.606 156.514 169.704C147.636 173.801 141.148 167.655 132.271 166.63Z" fill="#B4D7EE"/>
<path d="M164.709 208.629C172.904 207.605 180.074 213.409 188.269 209.312C197.489 205.214 203.976 211.019 212.513 212.385C204.318 213.409 197.147 207.605 188.952 211.702C180.074 215.799 173.587 209.653 164.709 208.629Z" fill="#B4D7EE"/>
<path d="M12.7612 205.898C20.9562 204.873 28.1267 210.678 36.3216 206.581C45.1995 202.483 52.0286 208.288 60.565 209.654C52.37 210.678 45.1995 204.873 37.0046 208.971C28.1267 213.068 21.6391 207.264 12.7612 205.898" fill="#B4D7EE"/>
</g>
<g clip-path="url(#clip1)">
<path d="M93.7772 170.394C101.579 170.394 108.26 174.918 111.537 181.444L125.398 174.512C119.641 162.652 107.515 154.448 93.4423 154.448C88.4256 154.449 83.4668 155.518 78.8956 157.585L85.5451 172.216C88.1267 171.025 90.9342 170.404 93.7772 170.394V170.394ZM181.48 170.394C187.328 170.394 192.53 172.957 196.182 176.964L207.731 166.459C204.406 162.684 200.316 159.66 195.732 157.589C191.148 155.518 186.175 154.447 181.145 154.448C166.889 154.448 154.627 162.863 148.962 174.978L163.505 181.843C166.702 175.098 173.519 170.394 181.48 170.394Z" fill="#E2950B"/>
<path d="M93.7768 162.421C90.1122 162.421 86.4835 163.143 83.0979 164.545C79.7123 165.947 76.636 168.003 74.0447 170.594C71.4535 173.185 69.398 176.262 67.9956 179.647C66.5933 183.033 65.8715 186.662 65.8715 190.326C65.8715 193.991 66.5933 197.619 67.9956 201.005C69.398 204.391 71.4535 207.467 74.0447 210.058C76.636 212.649 79.7123 214.705 83.0979 216.107C86.4835 217.51 90.1122 218.231 93.7768 218.231C101.178 218.231 108.276 215.291 113.509 210.058C118.742 204.825 121.682 197.727 121.682 190.326C121.682 182.925 118.742 175.827 113.509 170.594C108.276 165.361 101.178 162.421 93.7768 162.421V162.421ZM93.7768 210.259C88.4904 210.259 83.4205 208.158 79.6825 204.42C75.9444 200.682 73.8444 195.613 73.8444 190.326C73.8444 185.04 75.9444 179.97 79.6825 176.232C83.4205 172.494 88.4904 170.394 93.7768 170.394C99.0632 170.394 104.133 172.494 107.871 176.232C111.609 179.97 113.709 185.04 113.709 190.326C113.709 195.613 111.609 200.682 107.871 204.42C104.133 208.158 99.0632 210.259 93.7768 210.259V210.259ZM181.479 162.421C174.078 162.421 166.98 165.362 161.746 170.596C156.513 175.83 153.573 182.929 153.574 190.33C153.575 197.732 156.515 204.83 161.749 210.063C166.983 215.296 174.082 218.236 181.483 218.235C185.148 218.235 188.777 217.513 192.163 216.11C195.549 214.708 198.625 212.652 201.216 210.06C203.807 207.469 205.863 204.392 207.265 201.006C208.667 197.62 209.389 193.991 209.389 190.326C209.388 186.661 208.666 183.032 207.264 179.647C205.861 176.261 203.805 173.184 201.213 170.593C198.622 168.002 195.545 165.947 192.159 164.544C188.773 163.142 185.144 162.421 181.479 162.421V162.421ZM181.479 210.259C176.193 210.259 171.123 208.158 167.385 204.42C163.647 200.682 161.547 195.613 161.547 190.326C161.547 185.04 163.647 179.97 167.385 176.232C171.123 172.494 176.193 170.394 181.479 170.394C186.766 170.394 191.836 172.494 195.574 176.232C199.312 179.97 201.412 185.04 201.412 190.326C201.412 195.613 199.312 200.682 195.574 204.42C191.836 208.158 186.766 210.259 181.479 210.259V210.259Z" fill="#292F33"/>
<path d="M185.402 190.015C185.376 189.747 185.323 189.483 185.243 189.226C185.173 188.97 185.078 188.722 184.96 188.484C184.908 188.389 184.9 188.277 184.844 188.185L156.939 144.334C156.658 143.892 156.292 143.51 155.863 143.209C155.435 142.908 154.951 142.695 154.439 142.581C153.928 142.468 153.4 142.456 152.884 142.547C152.368 142.637 151.875 142.829 151.433 143.11C150.876 143.474 150.421 143.973 150.111 144.561C149.801 145.149 149.645 145.806 149.659 146.471H113.709C112.652 146.471 111.638 146.891 110.89 147.638C110.143 148.386 109.723 149.4 109.723 150.457C109.723 151.515 110.143 152.529 110.89 153.276C111.638 154.024 112.652 154.444 113.709 154.444H153.574C153.682 154.444 153.773 154.388 153.881 154.38L174.216 186.34H137.628C136.571 186.34 135.557 186.76 134.809 187.507C134.062 188.255 133.642 189.269 133.642 190.326C133.642 191.383 134.062 192.397 134.809 193.145C135.557 193.893 136.571 194.313 137.628 194.313H181.483C182.094 194.299 182.694 194.146 183.237 193.866C183.361 193.798 183.5 193.77 183.624 193.691C183.744 193.611 183.815 193.487 183.923 193.404C184.335 193.082 184.675 192.679 184.924 192.22C185.043 191.996 185.143 191.781 185.223 191.534C185.304 191.273 185.357 191.005 185.382 190.733C185.398 190.589 185.466 190.47 185.466 190.326C185.466 190.218 185.41 190.123 185.402 190.015Z" fill="#FCA509"/>
<path d="M151.903 138.502L140.347 170.86L116.711 143.852C116.368 143.451 115.949 143.123 115.478 142.885C115.008 142.648 114.495 142.506 113.969 142.468C113.443 142.43 112.915 142.496 112.415 142.664C111.915 142.832 111.453 143.097 111.057 143.444C110.66 143.791 110.336 144.213 110.104 144.687C109.871 145.16 109.735 145.675 109.703 146.201C109.671 146.727 109.743 147.254 109.916 147.752C110.089 148.25 110.36 148.709 110.711 149.102L137.277 179.459L133.873 188.987C133.517 189.983 133.572 191.079 134.025 192.034C134.478 192.99 135.292 193.726 136.288 194.081C137.284 194.437 138.381 194.382 139.336 193.929C140.291 193.476 141.028 192.662 141.383 191.666L160.371 138.502H151.903Z" fill="#FCA509"/>
<path d="M93.7766 194.312C93.0976 194.311 92.4302 194.136 91.8376 193.805C91.245 193.474 90.7468 192.997 90.3902 192.419C90.0337 191.841 89.8306 191.182 89.8002 190.504C89.7698 189.826 89.9132 189.151 90.2166 188.543L102.423 164.202C102.491 164.09 109.722 153.056 109.722 142.488C109.722 129.564 100.581 126.37 100.49 126.338C99.9868 126.178 99.5207 125.919 99.1186 125.577C98.7164 125.235 98.3862 124.817 98.1471 124.346C97.908 123.875 97.7648 123.362 97.7258 122.835C97.6868 122.309 97.7528 121.78 97.9199 121.279C98.087 120.778 98.352 120.315 98.6993 119.918C99.0467 119.52 99.4696 119.195 99.9434 118.963C100.417 118.73 100.933 118.593 101.46 118.561C101.987 118.529 102.515 118.602 103.013 118.776C103.611 118.975 117.695 123.883 117.695 142.488C117.695 154.718 110.376 166.574 109.2 168.388L97.3445 192.103C97.015 192.768 96.5062 193.327 95.8757 193.717C95.2452 194.107 94.5181 194.313 93.7766 194.312V194.312Z" fill="#FCA509"/>
<path d="M124.122 129.186C123.901 129.187 123.681 129.169 123.464 129.13L99.5451 125.144C98.5021 124.97 97.5709 124.389 96.9563 123.528C96.3418 122.668 96.0943 121.599 96.2682 120.556C96.4421 119.513 97.0232 118.581 97.8837 117.967C98.7442 117.352 99.8136 117.105 100.857 117.279L124.775 121.265C125.765 121.426 126.658 121.955 127.276 122.745C127.893 123.535 128.19 124.528 128.108 125.528C128.025 126.527 127.569 127.459 126.831 128.137C126.092 128.815 125.125 129.19 124.122 129.186ZM171.047 142.489C170.928 142.489 170.809 142.481 170.692 142.465L148.08 139.643C147.345 139.582 146.663 139.235 146.18 138.677C145.697 138.118 145.452 137.393 145.497 136.657C145.542 135.92 145.875 135.23 146.422 134.736C146.97 134.241 147.69 133.98 148.427 134.01C148.591 134.01 164.64 133.938 172.302 128.831C172.793 128.506 173.373 128.342 173.961 128.36C174.55 128.379 175.118 128.58 175.587 128.935C176.053 129.295 176.396 129.79 176.568 130.353C176.74 130.916 176.733 131.518 176.548 132.076L173.721 140.556C173.537 141.119 173.178 141.609 172.698 141.956C172.217 142.304 171.639 142.49 171.047 142.489V142.489Z" fill="#292F33"/>
<path d="M145.601 190.326C145.601 192.441 144.761 194.469 143.266 195.964C141.771 197.459 139.743 198.299 137.628 198.299C135.513 198.299 133.486 197.459 131.99 195.964C130.495 194.469 129.655 192.441 129.655 190.326C129.655 188.212 130.495 186.184 131.99 184.688C133.486 183.193 135.513 182.353 137.628 182.353C139.743 182.353 141.771 183.193 143.266 184.688C144.761 186.184 145.601 188.212 145.601 190.326V190.326Z" fill="#66757F"/>
</g>
<path d="M99.3136 171.368C99.0614 171.368 98.8371 171.298 98.6689 171.172C97.9262 170.611 98.0523 167.514 98.0943 166.491C98.1504 165.089 97.3515 163.365 96.5807 162.553C96.1883 162.146 95.7679 161.936 95.3474 161.936H95.2913L95.1372 161.95L94.955 162.006C94.016 162.216 94.002 163.379 93.988 164.515C93.9739 165.299 93.9599 166.168 93.7076 166.911C93.5675 167.332 93.0489 167.346 92.9508 167.346C92.3342 167.346 91.6615 166.953 91.6334 166.084C91.6334 165.972 91.6054 165.832 91.5493 165.622C91.4512 165.131 91.227 164.122 91.3391 162.062C91.4793 159.595 91.7736 156.778 92.8948 154.522L93.0349 154.256L85.5229 127.207L82.5798 117.579C83.6449 117.018 86.2237 115.827 88.8164 115.827C91.8296 115.827 93.9459 117.424 95.1232 120.564C97.0572 125.609 98.2485 131.706 98.8792 139.764C99.3697 145.959 100.197 151.116 100.575 152.322C100.687 152.672 100.911 153.387 100.911 153.387C101.346 154.802 101.514 155.335 103.322 159.133C104.275 161.137 103.897 163.155 103.448 165.496C103.294 166.281 103.154 167.065 103.042 167.878C102.775 169.658 100.701 171.368 99.3136 171.368Z" fill="url(#paint0_linear)"/>
<path d="M36.0784 171.367C34.6909 171.367 32.6167 169.643 32.3785 167.891C32.2663 167.065 32.1122 166.266 31.972 165.509C31.5235 163.168 31.1451 161.136 32.0841 159.132C33.8781 155.362 34.0603 154.787 34.4807 153.428C34.5788 153.12 34.6769 152.769 34.8311 152.335C35.2095 151.2 36.0364 146.07 36.5409 139.777C37.1856 131.705 38.3769 125.608 40.2829 120.591C41.4742 117.452 43.6044 115.868 46.6036 115.868C49.2104 115.868 51.7892 117.059 52.8403 117.606L49.8972 127.206L42.3851 154.269L42.5253 154.535C43.6605 156.792 43.9408 159.609 44.081 162.075C44.1791 164.135 43.9688 165.145 43.8567 165.635C43.8147 165.845 43.7866 165.985 43.7866 166.098C43.7446 166.966 43.0719 167.359 42.4692 167.359C42.0768 167.359 41.7965 167.205 41.7124 166.924C41.4602 166.196 41.4461 165.313 41.4321 164.542C41.4181 163.407 41.3901 162.229 40.353 161.991L40.1007 161.963C39.6382 161.963 39.2318 162.173 38.8253 162.58C38.0545 163.379 37.2557 165.117 37.3117 166.504C37.3538 167.527 37.4799 170.624 36.7231 171.199C36.5549 171.311 36.3307 171.367 36.0784 171.367Z" fill="url(#paint1_linear)"/>
<path d="M77.1133 214.155L69.8956 165.018C69.6854 163.953 68.7604 163.238 67.7093 163.238C66.6582 163.238 65.7332 163.953 65.537 164.948L58.2913 214.155L49.602 214.491L48.1584 149.98H87.2321L85.8026 214.491L77.1133 214.155Z" fill="#1E1E1E"/>
<path d="M81.7384 217.786H87.975C89.1243 217.758 89.9511 216.441 89.6148 215.291C88.5777 211.802 85.4243 209.237 81.7384 209.237C77.9824 209.237 74.787 211.9 73.8059 215.488C73.4976 216.637 74.3525 217.772 75.5017 217.772H81.7384V217.786Z" fill="#424242"/>
<path d="M53.6524 217.786H47.4157C46.2665 217.758 45.4396 216.441 45.776 215.291C46.8131 211.802 49.9664 209.237 53.6524 209.237C57.4084 209.237 60.6038 211.9 61.5848 215.488C61.8932 216.637 61.0383 217.772 59.889 217.772H53.6524V217.786Z" fill="#424242"/>
<path d="M81.2487 106.886C77.8711 105.989 73.4283 105.4 67.8784 105.4H67.6542C62.1043 105.4 57.5914 105.989 54.2419 106.886C43.6606 109.703 40.9837 116.08 37.8303 124.615L48.1594 129.099V153.317H87.4013V129.099L97.6042 124.615C94.4508 116.08 91.83 109.703 81.2487 106.886Z" fill="#388E3C"/>
<path d="M88.8446 95.8699C88.0878 94.4965 89.0548 93.095 90.6946 91.3571C93.3014 88.6102 96.1464 82.2334 93.5116 75.7445C93.5256 75.7024 92.993 74.6092 93.007 74.5812L91.9139 74.5252C91.5635 74.4691 79.6368 74.4551 67.696 74.4551C55.7553 74.4551 43.8285 74.4831 43.4782 74.5252C43.4782 74.5252 41.8664 75.7024 41.8805 75.7445C39.2456 82.2194 42.0907 88.5962 44.6975 91.3571C46.3372 93.095 47.3042 94.4965 46.5474 95.8699C45.8187 97.2014 43.6323 97.3976 43.6323 97.3976C43.6323 97.3976 44.1369 98.771 45.3421 99.4998C46.4633 100.187 47.8368 100.341 48.8038 100.369C48.8038 100.369 52.5318 105.526 62.2722 105.526H73.1198C82.8602 105.526 86.5882 100.369 86.5882 100.369C87.5412 100.341 88.9147 100.187 90.0499 99.4998C91.2692 98.757 91.7597 97.3976 91.7597 97.3976C91.7597 97.3976 89.5734 97.2014 88.8446 95.8699Z" fill="#543930"/>
<path d="M67.6957 105.526V99.8074L85.0042 98.434L86.5739 100.368C86.5739 100.368 82.8459 105.526 73.1055 105.526H67.6957Z" fill="url(#paint2_radial)"/>
<path d="M86.5323 97.8736C83.9396 93.9354 89.6857 92.4639 89.6857 92.4639C88.6907 93.7112 88.2282 94.7904 88.8168 95.8555C89.5456 97.1869 91.7319 97.3831 91.7319 97.3831C91.7319 97.3831 88.7747 100.046 86.5323 97.8736Z" fill="url(#paint3_radial)"/>
<path d="M93.5254 75.7434C96.1042 82.0221 93.3853 88.469 90.8485 91.2019C90.4982 91.5803 89.0266 93.0239 88.6903 94.1871C88.6903 94.1871 82.9161 86.1285 81.1782 81.3914C80.8279 80.4384 80.5195 79.4434 80.4775 78.4343C80.4494 77.6775 80.5616 76.7665 81.01 76.1218C81.5426 75.323 93.2311 75.0987 93.2311 75.0987C93.2171 75.0847 93.5254 75.7434 93.5254 75.7434Z" fill="url(#paint4_radial)"/>
<path d="M41.8797 75.7435C39.301 82.0222 42.0199 88.4691 44.5566 91.202C44.9069 91.5805 46.3785 93.024 46.7149 94.1872C46.7149 94.1872 52.489 86.1286 54.2269 81.3916C54.5773 80.4386 54.8856 79.4435 54.9417 78.4344C54.9697 77.6776 54.8576 76.7666 54.4091 76.1219C53.8765 75.3231 53.2458 75.5333 52.3209 75.5333C50.569 75.5333 42.9448 75.0848 42.3422 75.0848C42.3562 75.0848 41.8797 75.7435 41.8797 75.7435Z" fill="url(#paint5_radial)"/>
<path d="M67.7098 105.526V99.8074L50.4013 98.434L48.8317 100.368C48.8317 100.368 52.5596 105.526 62.3 105.526H67.7098Z" fill="url(#paint6_radial)"/>
<path d="M48.8741 97.8736C51.4669 93.9354 45.7207 92.4639 45.7207 92.4639C46.7158 93.7112 47.1783 94.7904 46.5897 95.8555C45.8609 97.1869 43.6746 97.3831 43.6746 97.3831C43.6746 97.3831 46.6317 100.046 48.8741 97.8736Z" fill="url(#paint7_radial)"/>
<path d="M67.6958 101.07H60.6883V108.498C60.6883 111.861 63.5333 114.58 67.0511 114.58H68.3264C71.8442 114.58 74.6892 111.861 74.6892 108.498V101.07H67.6958Z" fill="#99674F"/>
<path d="M84.4715 78.1123H50.9196C47.3038 78.1123 44.3466 81.2657 44.3466 85.1198C44.3466 88.9739 47.3038 92.1273 50.9196 92.1273H84.4855C88.1013 92.1273 91.0585 88.9739 91.0585 85.1198C91.0585 81.2657 88.1013 78.1123 84.4715 78.1123Z" fill="#99674F"/>
<path d="M67.6953 53.3341C57.0159 53.3341 47.1073 64.7563 47.1073 81.2099C47.1073 97.5653 57.3102 105.652 67.6953 105.652C78.0804 105.652 88.2832 97.5653 88.2832 81.2099C88.2832 64.7563 78.3747 53.3341 67.6953 53.3341Z" fill="#BA8D68"/>
<path d="M92.0806 62.6953C90.5951 60.4529 87.2875 57.4537 84.3163 57.2575C83.8398 54.3984 80.7846 51.9738 77.8134 51.0348C69.7968 48.4981 64.5833 51.3432 61.7803 52.8708C61.1917 53.1931 57.4356 55.2814 54.8008 53.7818C53.1471 52.8428 53.1891 50.306 53.1891 50.306C53.1891 50.306 48.0176 52.2681 49.7975 57.762C48.0316 57.8321 45.6911 58.5889 44.4578 61.0695C42.9862 64.0407 43.5188 66.5214 43.9392 67.7126C42.4116 69.002 40.4916 71.763 41.809 75.3508C42.804 78.0417 46.7562 79.289 46.7562 79.289C46.476 84.1382 47.3869 87.1234 47.8634 88.3427C47.9475 88.5529 48.2418 88.5389 48.2979 88.3146C48.9005 85.9181 50.9467 77.5371 50.7365 76.0655C50.7365 76.0655 57.6038 74.7061 64.1628 69.8709C65.4943 68.8899 66.9378 68.049 68.4794 67.4323C76.7202 64.1528 78.4441 69.7448 78.4441 69.7448C78.4441 69.7448 84.1482 68.6516 85.872 76.5701C86.5167 79.5413 86.9652 84.2923 87.3296 87.6279C87.3576 87.8661 87.6799 87.9082 87.764 87.698C88.3386 86.3806 89.4879 83.7598 89.7682 81.0829C89.8663 80.1439 92.403 78.8966 93.4821 74.8603C94.9397 69.4925 93.1598 64.321 92.0806 62.6953Z" fill="#543930"/>
<path d="M89.7561 81.1099C89.8542 80.1709 92.3909 78.9235 93.4701 74.8872C93.5822 74.4528 93.6803 74.0183 93.7784 73.5838C94.6613 68.6786 93.0776 64.1798 92.0826 62.6942C90.7091 60.62 87.78 57.9151 84.991 57.3545C84.7527 57.3265 84.5145 57.2984 84.2903 57.2844C84.2903 57.2844 84.4865 58.5878 83.9679 59.6249C83.2812 60.9704 81.9077 61.2927 81.9077 61.2927C89.1535 68.5525 88.6349 74.6209 89.7561 81.1099Z" fill="url(#paint8_radial)"/>
<path d="M63.5337 51.9603C62.875 52.2827 62.2864 52.605 61.7819 52.8713C61.1932 53.1936 57.4372 55.2819 54.8024 53.7823C53.1767 52.8573 53.1907 50.4046 53.1907 50.3206C52.4479 51.2736 50.1915 58.0708 56.7785 58.5193C59.6235 58.7155 61.3754 56.2349 62.4125 54.1326C62.7909 53.3758 63.3796 52.2686 63.5337 51.9603Z" fill="url(#paint9_radial)"/>
<path d="M76.988 50.7971C81.4308 52.0023 83.5891 54.2588 84.3038 57.272C84.514 58.1549 84.7663 66.4097 69.0135 57.0337C63.1552 53.544 64.7529 51.3577 65.4397 51.1194C68.1306 50.1384 72.0267 49.4516 76.988 50.7971Z" fill="url(#paint10_radial)"/>
<path d="M53.1626 50.3208C53.1486 50.3208 53.1486 50.3348 53.1206 50.3348C52.56 50.573 48.1313 52.6192 49.785 57.7627L54.5081 58.5195C50.3316 54.287 53.1907 50.3068 53.1907 50.3068C53.1907 50.3068 53.1767 50.3208 53.1626 50.3208Z" fill="url(#paint11_radial)"/>
<path d="M52.7006 58.2236L49.7855 57.7471C49.6734 57.7471 49.2809 57.7751 49.0707 57.8171C47.431 58.0414 45.4969 58.8963 44.4458 61.0686C43.3246 63.4091 43.3526 65.4133 43.6609 66.7587C43.745 67.2072 43.9272 67.7117 43.9272 67.7117C43.9272 67.7117 45.3708 66.3382 48.8044 66.2542L52.7006 58.2236Z" fill="url(#paint12_radial)"/>
<path d="M43.8008 67.8244C42.3712 69.0998 40.4372 71.9448 41.8527 75.4626C42.9318 78.1254 46.7579 79.2746 46.7579 79.2746C46.7579 79.2887 47.5287 79.5129 47.9212 79.5129L48.8181 66.2407C46.9822 66.2407 45.2163 66.7873 44.0811 67.5862C44.0811 67.6142 43.7867 67.8104 43.8008 67.8244Z" fill="url(#paint13_radial)"/>
<path d="M72.8673 94.4399C70.9052 95.6031 64.5003 95.6031 62.5382 94.4399C61.417 93.7671 60.2678 94.7902 60.7303 95.8133C61.1928 96.8224 64.6825 99.1489 67.7098 99.1489C70.737 99.1489 74.1847 96.8224 74.6472 95.8133C75.1237 94.7902 73.9885 93.7671 72.8673 94.4399Z" fill="#5D4037"/>
<path d="M70.0638 89.4077C70.0004 89.3826 69.9347 89.3638 69.8676 89.3517H65.523C65.4529 89.3657 65.3828 89.3797 65.3268 89.4077C64.9343 89.5619 64.7101 89.9683 64.9063 90.4168C65.1025 90.8653 65.9574 92.0706 67.6953 92.0706C69.4331 92.0706 70.3021 90.8513 70.4843 90.4168C70.6805 89.9824 70.4562 89.5759 70.0638 89.4077Z" fill="#99674F"/>
<path d="M57.6046 86.8436C59.2765 86.8436 60.6318 85.4381 60.6318 83.7043C60.6318 81.9705 59.2765 80.5649 57.6046 80.5649C55.9327 80.5649 54.5773 81.9705 54.5773 83.7043C54.5773 85.4381 55.9327 86.8436 57.6046 86.8436Z" fill="#49362E"/>
<path d="M77.7866 86.8436C79.4584 86.8436 80.8138 85.4381 80.8138 83.7043C80.8138 81.9705 79.4584 80.5649 77.7866 80.5649C76.1147 80.5649 74.7593 81.9705 74.7593 83.7043C74.7593 85.4381 76.1147 86.8436 77.7866 86.8436Z" fill="#49362E"/>
<path d="M73.3023 78.0849C73.877 77.3281 75.2084 76.2069 77.8011 76.2069C80.3939 76.2069 81.7253 77.3141 82.3 78.0849C82.5522 78.4213 82.4962 78.8137 82.314 79.052C82.1458 79.2762 81.6693 79.4724 81.1367 79.2902C80.6041 79.108 79.553 78.5754 77.8152 78.5614C76.0633 78.5754 75.0262 79.108 74.4936 79.2902C73.961 79.4724 73.4705 79.2762 73.3164 79.052C73.2015 78.9177 73.1373 78.7476 73.1347 78.571C73.1322 78.3944 73.1915 78.2224 73.3023 78.0849Z" fill="#613E31"/>
<path d="M53.1066 78.0849C53.6812 77.3281 55.0126 76.2069 57.6054 76.2069C60.1982 76.2069 61.5296 77.3141 62.1042 78.0849C62.3565 78.4213 62.3004 78.8137 62.1182 79.052C61.95 79.2762 61.4735 79.4724 60.941 79.2902C60.4084 79.108 59.3573 78.5754 57.6194 78.5614C55.8675 78.5754 54.8304 79.108 54.2979 79.2902C53.7653 79.4724 53.2748 79.2762 53.1206 79.052C53.0058 78.9177 52.9415 78.7476 52.939 78.571C52.9364 78.3944 52.9957 78.2224 53.1066 78.0849Z" fill="#613E31"/>
<defs>
<linearGradient id="paint0_linear" x1="93.2157" y1="116.784" x2="93.2157" y2="170.778" gradientUnits="userSpaceOnUse">
<stop offset="0.599" stop-color="#BA8D68"/>
<stop offset="1" stop-color="#A47B62"/>
</linearGradient>
<linearGradient id="paint1_linear" x1="42.1777" y1="116.783" x2="42.1777" y2="170.777" gradientUnits="userSpaceOnUse">
<stop offset="0.599" stop-color="#BA8D68"/>
<stop offset="1" stop-color="#A47B62"/>
</linearGradient>
<radialGradient id="paint2_radial" cx="0" cy="0" r="1" gradientUnits="userSpaceOnUse" gradientTransform="translate(76.5322 97.2605) scale(14.1902 6.97021)">
<stop offset="0.728" stop-color="#6D4C41" stop-opacity="0"/>
<stop offset="1" stop-color="#6D4C41"/>
</radialGradient>
<radialGradient id="paint3_radial" cx="0" cy="0" r="1" gradientUnits="userSpaceOnUse" gradientTransform="translate(90.5116 95.1489) rotate(154.924) scale(4.19308 3.11066)">
<stop offset="0.663" stop-color="#6D4C41"/>
<stop offset="1" stop-color="#6D4C41" stop-opacity="0"/>
</radialGradient>
<radialGradient id="paint4_radial" cx="0" cy="0" r="1" gradientUnits="userSpaceOnUse" gradientTransform="translate(79.6414 83.2899) rotate(-94.2783) scale(18.4182 15.3504)">
<stop offset="0.725" stop-color="#6D4C41" stop-opacity="0"/>
<stop offset="1" stop-color="#6D4C41"/>
</radialGradient>
<radialGradient id="paint5_radial" cx="0" cy="0" r="1" gradientUnits="userSpaceOnUse" gradientTransform="translate(55.7619 83.2896) rotate(-85.7217) scale(18.4182 15.3504)">
<stop offset="0.725" stop-color="#6D4C41" stop-opacity="0"/>
<stop offset="1" stop-color="#6D4C41"/>
</radialGradient>
<radialGradient id="paint6_radial" cx="0" cy="0" r="1" gradientUnits="userSpaceOnUse" gradientTransform="translate(58.8734 97.2605) rotate(180) scale(14.1901 6.97021)">
<stop offset="0.728" stop-color="#6D4C41" stop-opacity="0"/>
<stop offset="1" stop-color="#6D4C41"/>
</radialGradient>
<radialGradient id="paint7_radial" cx="0" cy="0" r="1" gradientUnits="userSpaceOnUse" gradientTransform="translate(44.8951 95.1493) rotate(25.0761) scale(4.19307 3.11066)">
<stop offset="0.663" stop-color="#6D4C41"/>
<stop offset="1" stop-color="#6D4C41" stop-opacity="0"/>
</radialGradient>
<radialGradient id="paint8_radial" cx="0" cy="0" r="1" gradientUnits="userSpaceOnUse" gradientTransform="translate(78.7228 73.5685) rotate(72.0851) scale(21.5897 16.0191)">
<stop offset="0.699" stop-color="#6D4C41" stop-opacity="0"/>
<stop offset="1" stop-color="#6D4C41"/>
</radialGradient>
<radialGradient id="paint9_radial" cx="0" cy="0" r="1" gradientUnits="userSpaceOnUse" gradientTransform="translate(57.6779 50.0328) rotate(28.2026) scale(5.66076 6.71201)">
<stop offset="0.58" stop-color="#6D4C41"/>
<stop offset="1" stop-color="#6D4C41" stop-opacity="0"/>
</radialGradient>
<radialGradient id="paint10_radial" cx="0" cy="0" r="1" gradientUnits="userSpaceOnUse" gradientTransform="translate(70.3293 60.3103) rotate(-157.19) scale(17.7045 9.94998)">
<stop offset="0.699" stop-color="#6D4C41" stop-opacity="0"/>
<stop offset="1" stop-color="#6D4C41"/>
</radialGradient>
<radialGradient id="paint11_radial" cx="0" cy="0" r="1" gradientUnits="userSpaceOnUse" gradientTransform="translate(55.4022 55.1951) scale(5.19536 6.35547)">
<stop offset="0.702" stop-color="#6D4C41" stop-opacity="0"/>
<stop offset="1" stop-color="#6D4C41"/>
</radialGradient>
<radialGradient id="paint12_radial" cx="0" cy="0" r="1" gradientUnits="userSpaceOnUse" gradientTransform="translate(54.6835 64.3683) rotate(-164.942) scale(9.74496 9.11951)">
<stop offset="0.66" stop-color="#6D4C41" stop-opacity="0"/>
<stop offset="1" stop-color="#6D4C41"/>
</radialGradient>
<radialGradient id="paint13_radial" cx="0" cy="0" r="1" gradientUnits="userSpaceOnUse" gradientTransform="translate(52.3816 73.7747) rotate(7.83355) scale(10.2313 14.3766)">
<stop offset="0.598" stop-color="#6D4C41" stop-opacity="0"/>
<stop offset="1" stop-color="#6D4C41"/>
</radialGradient>
<clipPath id="clip0">
<rect width="218.531" height="218.531" fill="white" transform="translate(0.468506)"/>
</clipPath>
<clipPath id="clip1">
<rect width="143.513" height="143.513" fill="white" transform="translate(65.8715 74.7183)"/>
</clipPath>
</defs>
</svg>
